<svg xmlns="http://www.w3.org/2000/svg" version="1.1" xmlns:xlink="http://www.w3.org/1999/xlink" xmlns:svgjs="http://svgjs.dev/svgjs" viewBox="0 0 6.45211343218538 5.974666916407436"><g transform="matrix(0.8522780648191639,0,0,0.8522780648191639,1.855359891881738,2.4268901319216694)"><g transform="matrix(1,0,0,1,0,0)"><g clip-path="url(#SvgjsClipPath18716)"><path d=" M -0.9630141737908544 1.1514929066495436 C -1.1394711620062807 0.8458612818598286 -1.1394711620062807 0.4693041539676517 -0.9630140091541248 0.16367252917793662 L -0.10753686675427643 -1.3180580370294739 C 0.06892078000806845 -1.6236913081864848 0.39502662848817827 -1.8119682257652774 0.7479485074820511 -1.8119682257652774 L 2.4589357196276636 -1.8119682257652774 C 2.811867476825311 -1.8119682257652774 3.137979910774604 -1.6236797836154144 3.3144210938639906 -1.3180333415200371 L 4.169857077081445 0.16368899285089444 C 4.346281796497873 0.4693206176406095 4.346281796497873 0.8458448181868707 4.169857077081445 1.1514764429765858 L 3.3144210938639906 2.6332070091839967 C 3.137979910774604 2.938838633973711 2.811867476825311 3.1271336615927576 2.4589357196276636 3.1271336615927576 L 0.7479485074820511 3.1271336615927576 C 0.39502662848817827 3.1271336615927576 0.06892078000806845 2.938855097646669 -0.10753686675427643 2.633223472856954 L -0.9630141737908544 1.1514929066495436 Z" fill="#d5cce1" transform="matrix(1,0,0,1,0,0)" fill-rule="nonzero"></path></g></g><g transform="matrix(1,0,0,1,0,0)"><path d=" M 0.5193759083923785 1.4296041953037673 Q 0.4295854971109842 1.4296041953037673 0.33979508582958995 1.4031952508092396 Q 0.25000467454819575 1.3767863063147119 0.17517933181370052 1.3239684173256563 Q 0.10035398907920533 1.271150528336601 0.055458783438508207 1.195444887452288 Q 0.010563577797811087 1.1197392465679754 0.010563577797811087 1.0229064500880405 Q 0.010563577797811087 0.9929763129942424 0.015845366696716632 0.9612855796008091 Q 0.035211925992703626 0.8380438386263463 0.11707965392573955 0.7658593903413039 Q 0.19894738185877547 0.6936749420562616 0.3169073339343326 0.6936749420562616 Q 0.32923150803177886 0.6936749420562616 0.34243598027904276 0.6945552402060791 Q 0.3556404525263066 0.6954355383558967 0.36796462662375284 0.6971961346555319 Q 0.4401490749087953 0.7059991161537078 0.500889647246209 0.7456125328954993 Q 0.5616302195836228 0.785225949637291 0.5994830400257792 0.8442059256750696 Q 0.6373358604679356 0.9031859017128481 0.6373358604679356 0.9753703499978905 Q 0.6373358604679356 1.0176246611891349 0.6250116863704893 1.0545971834814736 Q 0.6021239344752319 1.1214998428676106 0.5369818713887302 1.163754154058855 Q 0.47183980830222855 1.2060084652500993 0.3996553600171861 1.2060084652500993 Q 0.35211925992703624 1.2060084652500993 0.3098649487357919 1.184881309654477 Q 0.3028225635372512 1.1813601170552066 0.2808151097918114 1.16551475035849 Q 0.2588076560463716 1.1496693836617735 0.25528646344710126 1.1426269984632327 Q 0.24648348194892536 1.1214998428676106 0.24648348194892536 1.1126968613694346 Q 0.24648348194892536 1.0933303020734477 0.2588076560463716 1.0854076187250894 Q 0.2711318301438179 1.077484935376731 0.28873779314016973 1.077484935376731 Q 0.30458315983688633 1.077484935376731 0.3195482283837854 1.0845273205752717 Q 0.33451329693068443 1.0915697057738125 0.34155568212922516 1.105654476170894 L 0.3433162784288603 1.1091756687701642 Q 0.3433162784288603 1.1091756687701642 0.3609222414252121 1.1144574576690698 Q 0.37500701182229357 1.1179786502683402 0.38733118591973986 1.1179786502683402 Q 0.4172613230135379 1.1179786502683402 0.4507126527066064 1.1065347743207115 Q 0.48416398239967484 1.095090898373083 0.5105729268942025 1.0748440409272781 Q 0.5369818713887302 1.0545971834814736 0.5440242565872709 1.0317094315862163 Q 0.5493060454861766 1.0123428722902292 0.5493060454861766 0.9859339277957015 Q 0.5493060454861766 0.9207918647091999 0.5167350139429256 0.8750163609186852 Q 0.48416398239967484 0.8292408571281704 0.4304657952608018 0.8045925089332779 Q 0.3767676081219288 0.7799441607383854 0.31338614133506226 0.7799441607383854 Q 0.13732651137154414 0.7799441607383854 0.10211458537884051 0.9753703499978905 Q 0.10035398907920533 0.9876945240953368 0.09947369092938774 0.9991384000429655 Q 0.09859339277957015 1.0105822759905942 0.09859339277957015 1.0229064500880405 Q 0.09859339277957015 1.1214998428676106 0.16373545586607186 1.1963251856021058 Q 0.22887751895257355 1.271150528336601 0.32394971913287335 1.3081230506289396 Q 0.36972522292338805 1.3257290136252915 0.4199022174629907 1.3345319951234675 Q 0.4700792120025934 1.3433349766216434 0.5193759083923785 1.3433349766216434 Q 0.6021239344752319 1.3433349766216434 0.6839916624082679 1.320447224726386 Q 0.7658593903413038 1.2975594728311286 0.8336423478772583 1.2509036708907963 Q 0.9014253054132128 1.204247868950464 0.9427993184546395 1.135584613264692 Q 0.9841733314960662 1.06692135757892 0.9841733314960662 0.9771309462975257 Q 0.9841733314960662 0.8785375535179556 0.9383978277055516 0.8142757885812715 Q 0.8926223239150368 0.7500140236445874 0.8195575774801769 0.7095203087529781 Q 0.7464928310453168 0.669026593861369 0.6602236123631929 0.6426176493668413 Q 0.6091663196737727 0.6267722826701246 0.5475454491865414 0.6091663196737728 Q 0.48592457869931 0.591560356677421 0.427824900811349 0.5660317103327109 Q 0.36972522292338805 0.5405030639880007 0.3257103154325085 0.5008896472462092 Q 0.281695407941629 0.4612762305044176 0.2640894449452772 0.4014159563168215 Q 0.2517652708478309 0.35916164512557713 0.2517652708478309 0.3133861413350625 Q 0.2517652708478309 0.21831394115476255 0.30546345798670393 0.1478900891693553 Q 0.35916164512557697 0.07746623718394807 0.44367026750806565 0.03873311859197415 Q 0.5281788898905544 2.220446049250313e-16 0.6214904937712189 2.220446049250313e-16 Q 0.6760689790599096 2.220446049250313e-16 0.7297671661987826 0.013204472247263954 Q 0.7834653533376557 0.02640894449452791 0.8310014534278055 0.05633908158832601 Q 0.8820587461172258 0.0880298149817591 0.9190312684095646 0.1443688965700849 Q 0.9560037907019033 0.2007079781584109 0.9560037907019033 0.2623288486456421 Q 0.9560037907019033 0.2957801783387106 0.9427993184546395 0.3274709117321438 Q 0.9295948462073756 0.35916164512557713 0.8979041128139423 0.38733118591974003 Q 0.8767769572183202 0.4049371489160918 0.8494877145739749 0.4146204285640853 Q 0.8221984719296296 0.42430370821207886 0.7940289311354667 0.42430370821207886 Q 0.7447322347456816 0.42430370821207886 0.7051188180038901 0.39349327296846315 Q 0.6655054012620985 0.36268283772484744 0.6725477864606392 0.29754077463834583 Q 0.6760689790599096 0.27817421534235875 0.6919143457566262 0.2623288486456421 Q 0.7077597124533428 0.24648348194892544 0.7253656754496947 0.24648348194892544 Q 0.7464928310453168 0.24648348194892544 0.7570564088431279 0.27641361904272355 Q 0.7588170051427631 0.2816954079416292 0.7588170051427631 0.290498389439805 Q 0.7588170051427631 0.2957801783387106 0.7579367069929455 0.30018166908779853 Q 0.7570564088431279 0.30458315983688644 0.7570564088431279 0.3116255450354273 Q 0.7588170051427631 0.3274709117321438 0.7711411792402093 0.33451329693068454 Q 0.7834653533376557 0.34155568212922527 0.7975501237347371 0.34155568212922527 Q 0.8169166830307241 0.34155568212922527 0.8257196645289 0.33451329693068454 Q 0.845086223824887 0.3221891228332383 0.8565300997725156 0.30634375613652165 Q 0.8679739757201443 0.290498389439805 0.8679739757201443 0.2605682523460069 Q 0.8679739757201443 0.21831394115476255 0.8380438386263462 0.17870052441297113 Q 0.8081137015325481 0.1390871076711795 0.7693805829405742 0.11972054837519241 Q 0.7359292532475057 0.10035398907920556 0.6980764328053494 0.09331160388066473 Q 0.6602236123631929 0.08626921868212412 0.6214904937712189 0.08626921868212412 Q 0.5493060454861766 0.08626921868212412 0.48416398239967484 0.1153190576261045 Q 0.4190219193131731 0.1443688965700849 0.37852820442156393 0.1971867855591405 Q 0.3380344895299548 0.25000467454819586 0.3380344895299548 0.3221891228332383 Q 0.3380344895299548 0.3538798562266715 0.3450768747284955 0.3802888007211993 Q 0.3538798562266714 0.41726132301353813 0.3952538692680982 0.4471914601073361 Q 0.43662788230952493 0.47712159720113423 0.4920866657480331 0.499129050946574 Q 0.5475454491865414 0.5211365046920138 0.6003633381755967 0.5369818713887304 Q 0.6531812271646522 0.552827238085447 0.6848719605580855 0.5616302195836229 Q 0.786986545936926 0.591560356677421 0.8741360627688675 0.6426176493668413 Q 0.961285579600809 0.6936749420562616 1.0158640648894994 0.7755426699892974 Q 1.0704425501781902 0.8574103979223333 1.0704425501781902 0.9771309462975257 Q 1.0704425501781902 1.088048513174542 1.0220261519382228 1.1725571355570308 Q 0.9736097536982552 1.2570657579395195 0.8926223239150368 1.314285137677663 Q 0.8116348941318186 1.3715045174158063 0.7148020976518835 1.4005543563597866 Q 0.6179693011719486 1.4296041953037673 0.5193759083923785 1.4296041953037673 M 3.1373757286205977 1.445449562000484 Q 3.0898396285304477 1.4489707545997543 3.0511065099384735 1.4252027045546793 Q 3.0123733913464994 1.4014346545096044 2.9868447450017896 1.3627015359176304 Q 2.9613160986570795 1.3239684173256563 2.9489919245596328 1.2869958950333176 Q 2.9366677504621865 1.2465021801417084 2.932266259713099 1.2007266763511937 Q 2.927864768964011 1.154951172560679 2.927864768964011 1.1091756687701642 Q 2.927864768964011 1.0792455316763663 2.9287450671138284 1.0493153945825682 Q 2.929625365263646 1.01938525748877 2.929625365263646 0.9912157166946072 Q 2.931385961563281 0.8802981498175908 2.938428346761822 0.7693805829405743 Q 2.945470731960363 0.658463016063558 2.9472313282599982 0.5475454491865415 L 2.9472313282599982 0.4912063675982157 Q 2.9472313282599982 0.44895205640697133 2.94282983751091 0.39877506186736866 Q 2.938428346761822 0.348598067327766 2.9261041726643757 0.30370286168706895 Q 2.9137799985669295 0.2588076560463717 2.8873710540724016 0.2297578171023913 Q 2.860962109577874 0.2007079781584109 2.8151866057873596 0.2007079781584109 Q 2.794059450191737 0.2007079781584109 2.772932294596115 0.2024685744580459 Q 2.751805139000493 0.2042291707576811 2.7341991760041413 0.21127155595622193 Q 2.697226653711802 0.22535632635330338 2.669937411067457 0.26673033939473 Q 2.6426481684231113 0.30810435243615686 2.6232816091271243 0.3547601543764891 Q 2.6039150498311376 0.4014159563168215 2.5915908757336914 0.4366278823095251 Q 2.5634213349395285 0.5158547157931083 2.5449350737933587 0.6206101956214015 Q 2.52644881264719 0.7253656754496948 2.5158852348493785 0.8354029441768935 Q 2.5053216570515673 0.9454402129040924 2.500039868152662 1.0440336056836625 Q 2.500039868152662 1.0493153945825682 2.4991595700028446 1.086287916874907 Q 2.4982792718530265 1.1232604391672458 2.4965186755533915 1.1681556448079429 Q 2.4947580792537565 1.21305085044864 2.4921171848043038 1.247382478291526 Q 2.489476290354851 1.281714106134412 2.4877156940552156 1.2834747024340472 Q 2.464827942159958 1.3169260321271157 2.4472219791636065 1.3169260321271157 Q 2.4366584013657953 1.3169260321271157 2.4269751217178017 1.3072427524791221 Q 2.417291842069808 1.2975594728311286 2.4067282642719974 1.281714106134412 Q 2.4067282642719974 1.2799535098347767 2.4058479661221797 1.2746717209358713 Q 2.404967667972362 1.2693899320369657 2.404967667972362 1.262347546838425 Q 2.404967667972362 1.2394597949431676 2.4067282642719974 1.2060084652500993 Q 2.4084888605716324 1.1725571355570308 2.4084888605716324 1.1672753466581252 Q 2.412010053170903 1.0739637427774607 2.413770649470538 0.9815324370466136 Q 2.415531245770173 0.8891011313157666 2.417291842069808 0.795789527435102 Q 2.417291842069808 0.7658593903413039 2.4190524383694436 0.7165626939515188 Q 2.420813034669079 0.6672659975617338 2.420813034669079 0.610926915973408 Q 2.420813034669079 0.53346067878946 2.4146509476203555 0.45335354715605924 Q 2.4084888605716324 0.3732464155226586 2.3908828975752807 0.30986494873579207 Q 2.3732769345789286 0.24648348194892544 2.33630441228659 0.22007453745439776 Q 2.3222196418895087 0.20951095965658673 2.309895467792062 0.20687006520713402 Q 2.2975712936946158 0.2042291707576811 2.278204734398629 0.2042291707576811 Q 2.198977900915046 0.2042291707576811 2.1479206082256255 0.24912437639837837 Q 2.0968633155362055 0.2940195820390754 2.066933178442407 0.36356313587466504 Q 2.0370030413486093 0.4331066897102547 2.0229182709515277 0.5105729268942026 Q 2.0088335005544464 0.5880391640781506 2.005312307955176 0.6531812271646523 Q 2.005312307955176 0.6637448049624635 2.0026714135057233 0.7095203087529781 Q 2.0000305190562706 0.7552958125434929 1.9956290283071825 0.8213181737798121 Q 1.9912275375580946 0.8873405350161314 1.9868260468090067 0.9604052814509915 Q 1.9824245560599185 1.0334700278858515 1.9780230653108308 1.1003726872719883 Q 1.9736215745617427 1.1672753466581252 1.9701003819624723 1.2165720430479103 Q 1.9665791893632019 1.2658687394376953 1.9648185930635669 1.281714106134412 Q 1.9630579967639317 1.2887564913329528 1.9621776986141142 1.2913973857824055 Q 1.9612974004642965 1.2940382802318582 1.9612974004642965 1.2940382802318582 Q 1.938409648569039 1.3239684173256563 1.9190430892730521 1.3239684173256563 Q 1.9014371262767003 1.3239684173256563 1.878549374381443 1.2869958950333176 Q 1.8767887780818078 1.2834747024340472 1.8767887780818078 1.281714106134412 Q 1.8767887780818078 1.2799535098347767 1.8767887780818078 1.2781929135351418 L 1.878549374381443 1.2553051616398843 Q 1.8820705669807132 1.221853831946816 1.8838311632803486 1.189282800403565 Q 1.8855917595799836 1.1567117688603141 1.8873523558796188 1.1232604391672458 Q 1.8979159336774298 0.9595249833011739 1.8979159336774298 0.7940289311354668 Q 1.8979159336774298 0.6919143457566264 1.8926341447785244 0.591560356677421 Q 1.8873523558796188 0.4964881564971212 1.8706266910330847 0.4075780433655446 Q 1.8539010261865503 0.3186679302339679 1.8160482057443939 0.24736378009874316 Q 1.7781953853022376 0.1760596299635182 1.7095321296164654 0.13468561692209158 Q 1.6408688739306934 0.09331160388066473 1.529951307053677 0.09331160388066473 Q 1.5070635551584197 0.09331160388066473 1.4841758032631622 0.10035398907920556 Q 1.461288051367905 0.10739637427774618 1.440160895772283 0.1179599520755572 Q 1.3486098881912534 0.16197485956643676 1.3037146825505563 0.24824407824856065 Q 1.258819476909859 0.33451329693068454 1.258819476909859 0.4348672860098899 Q 1.258819476909859 0.5123335231938378 1.2887496140036572 0.5792361825799748 Q 1.3186797510974553 0.6461388419661116 1.377659727135234 0.6857522587079032 Q 1.4366397031730125 0.7253656754496948 1.5211483255555012 0.7253656754496948 Q 1.5827691960427326 0.7253656754496948 1.635587085031788 0.7007173272548023 Q 1.684883781421573 0.6743083827602745 1.7086518314666481 0.6276525808199422 Q 1.7324198815117229 0.5809967788796099 1.7324198815117229 0.5317000824898248 Q 1.7324198815117229 0.4683186157029583 1.6963276573692017 0.4181416211633556 Q 1.6602354332266804 0.36796462662375296 1.5915721775409084 0.36796462662375296 Q 1.5845297923423676 0.36796462662375296 1.5757268108441917 0.36884492477357056 Q 1.566923829346016 0.36972522292338816 1.5581208478478399 0.3714858192230234 Q 1.5475572700500289 0.3732464155226586 1.5378739904020353 0.3776479062717465 Q 1.5281907107540418 0.3820493970208344 1.5158665366565955 0.3820493970208344 Q 1.491218188461703 0.3820493970208344 1.478013716214439 0.36972522292338816 Q 1.4648092439671754 0.3574010488259419 1.4648092439671754 0.34155568212922527 Q 1.4648092439671754 0.31514673763469747 1.4947393810609735 0.29930137093798104 Q 1.5053029588587845 0.2922589857394402 1.5361133941024003 0.2887377931401698 Q 1.566923829346016 0.2852166005408996 1.5757268108441917 0.2834560042412644 Q 1.65671424062741 0.27993481164199396 1.710412427766283 0.31426643948488 Q 1.7641106149051562 0.348598067327766 1.7913998575495014 0.406697745215727 Q 1.8186891001938468 0.464797423103688 1.8186891001938468 0.5299394861901897 Q 1.8186891001938468 0.602123934475232 1.7834771742011433 0.6716674883108218 Q 1.7482652482084395 0.7412110421464114 1.676080799923397 0.7781835644387503 Q 1.607417544237625 0.815156086731089 1.5264301144544068 0.815156086731089 Q 1.4084701623788496 0.815156086731089 1.3292433288952665 0.7596973032925808 Q 1.2500164954116832 0.7042385198540726 1.2112833768197093 0.6162087048723135 Q 1.1725502582277354 0.5281788898905545 1.1725502582277354 0.4331066897102547 Q 1.1725502582277354 0.31514673763469747 1.2288893398160612 0.2059897670573163 Q 1.285228421404387 0.09683279647993515 1.3979065845810386 0.042254311191244565 Q 1.470091032866081 0.008802981498176043 1.5563602515482047 0.008802981498176043 Q 1.683123185121938 0.008802981498176043 1.764990913054974 0.06426176493668434 Q 1.8468586409880097 0.11972054837519241 1.893514442928342 0.20951095965658673 Q 1.9401702448686744 0.29930137093798104 1.9595368041646613 0.4049371489160918 Q 1.9806639597602835 0.33803448952995496 2.0193970783522577 0.27201212829363564 Q 2.0581301969442314 0.2059897670573163 2.116229874832192 0.16109456141661926 Q 2.1743295527201534 0.116199355775922 2.253556386203736 0.116199355775922 Q 2.3433467974851308 0.116199355775922 2.394404090174551 0.15933396511698406 Q 2.4454613828639715 0.2024685744580459 2.4709900292086813 0.27201212829363564 Q 2.4965186755533915 0.34155568212922527 2.5053216570515673 0.42078251561280844 L 2.5088428496508377 0.4102189378149973 Q 2.531730601546095 0.33979508582959006 2.5678228256886166 0.27201212829363564 Q 2.6039150498311376 0.2042291707576811 2.6602541314194634 0.15933396511698406 Q 2.716593213007789 0.11443875947628701 2.801101835390278 0.11443875947628701 Q 2.8803286688738607 0.11443875947628701 2.926984470814193 0.15229157991844322 Q 2.9736402727545257 0.19014440036059965 2.996528024649783 0.25088497269801335 Q 3.0194157765450402 0.3116255450354273 3.026458161743581 0.3785282044215641 Q 3.033500546942122 0.445430863807701 3.033500546942122 0.5035305416956619 Q 3.033500546942122 0.6267722826701246 3.026458161743581 0.7473731291951345 Q 3.0194157765450402 0.8679739757201445 3.0158945839457703 0.9912157166946072 Q 3.0158945839457703 1.0088216796909588 3.015014285795952 1.032589729736034 Q 3.014133987646135 1.0563577797811088 3.014133987646135 1.086287916874907 Q 3.014133987646135 1.1408664021635975 3.0211763728446757 1.2016069745010114 Q 3.0282187580432165 1.262347546838425 3.0511065099384735 1.3063624543293046 Q 3.073994261833731 1.3503773618201842 3.121530361923881 1.35918034331836 Q 3.1268121508227864 1.3609409396179952 3.1268121508227864 1.3644621322172656 Q 3.132093939721692 1.3538985544194544 3.1567422879165843 1.3538985544194544 Q 3.1761088472125714 1.3538985544194544 3.1954754065085584 1.3627015359176304 Q 3.2148419658045455 1.3715045174158063 3.2148419658045455 1.3908710767117933 Q 3.2148419658045455 1.40671644340851 3.1937148102089234 1.427843599004132 Q 3.1866724250103826 1.4348859842026729 3.166425567564578 1.4392874749517608 Q 3.1461787101187735 1.4436889657008487 3.1373757286205977 1.445449562000484" fill="#3f170e" fill-rule="nonzero"></path></g><g transform="matrix(1,0,0,1,0,0)"></g></g><defs><clipPath id="SvgjsClipPath18716"><path d=" M -1.0999999999999999 -1.8119682257652774 h 5.4165484031359785 v 4.939101887358035 h -5.4165484031359785 Z"></path></clipPath></defs></svg>